<svg width="326" height="600" viewBox="0 0 326 600" fill="none" xmlns="http://www.w3.org/2000/svg">
<path d="M0 66.6667C0 29.8477 29.8477 0 66.6667 0C103.487 0 133.333 29.8477 133.333 66.6667C133.333 91.3427 119.927 112.888 100 124.415V367.987H159.717C196.537 367.987 226.383 338.137 226.383 301.32V259.46C206.077 248.037 192.36 226.279 192.36 201.318C192.36 164.499 222.207 134.652 259.027 134.652C295.843 134.652 325.693 164.499 325.693 201.318C325.693 225.708 312.593 247.037 293.05 258.66V301.32C293.05 374.957 233.353 434.653 159.717 434.653H100V475.587C119.927 487.113 133.333 508.657 133.333 533.333C133.333 570.153 103.487 600 66.6667 600C29.8477 600 0 570.153 0 533.333C0 508.657 13.4067 487.113 33.3333 475.587V124.415C13.4067 112.888 0 91.3427 0 66.6667Z" fill="#FFFFFF"/>
</svg>
