<svg width="555" height="562" viewBox="0 0 555 562" fill="none" xmlns="http://www.w3.org/2000/svg">
<path d="M0 0H57L268.5 203.5V264L0 0Z" fill="#00e6d3"/>
<path d="M5 31.5V102.5L225 321L263 284L5 31.5Z" fill="#00e6d3"/>
<path d="M268.5 303.5C268.5 404.255 268.5 460.745 268.5 561.5L224 529L225 344.5L268.5 303.5Z" fill="#00e6d3"/>
<path d="M555 0H498L286.5 203.5V264L555 0Z" fill="#00e6d3"/>
<path d="M550 31.5V102.5L330 321L292 284L550 31.5Z" fill="#00e6d3"/>
<path d="M286.5 303.5C286.5 404.255 286.5 460.745 286.5 561.5L331 529L330 344.5L286.5 303.5Z" fill="#00e6d3"/>
</svg>
