<svg width="658" height="630" viewBox="0 0 658 630" fill="none" xmlns="http://www.w3.org/2000/svg">
<path d="M304.637 64.0384C312.353 46.7257 316.213 38.0694 321.587 35.4037C326.253 33.0877 331.733 33.0877 336.4 35.4037C341.773 38.0694 345.633 46.7257 353.35 64.0384L414.817 201.936C417.1 207.054 418.24 209.613 420.007 211.573C421.567 213.307 423.477 214.694 425.607 215.643C428.017 216.716 430.803 217.01 436.377 217.598L586.52 233.445C605.37 235.435 614.793 236.429 618.99 240.716C622.633 244.439 624.327 249.652 623.567 254.807C622.693 260.74 615.653 267.083 601.573 279.773L489.417 380.847C485.257 384.597 483.173 386.473 481.857 388.757C480.69 390.78 479.96 393.023 479.717 395.343C479.44 397.967 480.02 400.707 481.183 406.19L512.51 553.88C516.443 572.423 518.41 581.693 515.63 587.007C513.213 591.627 508.78 594.847 503.643 595.717C497.73 596.717 489.52 591.983 473.1 582.513L342.317 507.08C337.463 504.28 335.037 502.883 332.457 502.333C330.173 501.85 327.813 501.85 325.53 502.333C322.95 502.883 320.523 504.28 315.67 507.08L184.887 582.513C168.468 591.983 160.258 596.717 154.345 595.717C149.208 594.847 144.773 591.627 142.358 587.007C139.579 581.693 141.545 572.423 145.478 553.88L176.803 406.19C177.966 400.707 178.547 397.967 178.271 395.343C178.027 393.023 177.298 390.78 176.131 388.757C174.813 386.473 172.732 384.597 168.569 380.847L56.4154 279.773C42.335 267.083 35.2947 260.74 34.4194 254.807C33.6594 249.652 35.353 244.439 38.9977 240.716C43.1937 236.429 52.6187 235.435 71.4687 233.445L221.612 217.598C227.184 217.01 229.97 216.716 232.38 215.643C234.511 214.694 236.42 213.307 237.982 211.573C239.747 209.613 240.888 207.054 243.169 201.936L304.637 64.0384Z" stroke="white" stroke-width="66.6667" stroke-linecap="round" stroke-linejoin="round"/>
</svg>
