<svg width="1874" height="2500" viewBox="0 0 1874 2500" fill="none" xmlns="http://www.w3.org/2000/svg">
<path fill-rule="evenodd" clip-rule="evenodd" d="M1449.19 944.889V1889.78L1585.87 1888.36L1722.55 1886.94L1723.89 943.471L1725.23 0H1449.19V944.889ZM589.32 432.59V716.561H865.328V148.62H589.32V432.59ZM148.768 1555.2V2500H424.776V610.403H148.768V1555.2ZM1019.26 896.937V1183.65H1295.35L1293.99 898.355L1292.61 613.057L1155.93 611.64L1019.26 610.223V896.937ZM589.32 1597.66V1884.29H865.328V1311.04H589.32V1597.66ZM1019.26 2064.76V2351.38H1295.26V1778.13H1019.26V2064.76Z" fill="#B9B9B9"/>
<path fill-rule="evenodd" clip-rule="evenodd" d="M589.319 1016.45V1151.8H865.328V881.104H589.319V1016.45ZM1019.26 1483.55V1618.9H1295.26V1348.2H1019.26V1483.55Z" fill="#B9B9B9"/>
</svg>
