<svg width="128" height="70" viewBox="0 0 128 70" fill="none" xmlns="http://www.w3.org/2000/svg">
<path d="M98.1801 59.13C113.81 43.51 116.41 20.77 103.98 8.34996C91.5501 -4.07004 68.8101 -1.47004 53.1801 14.15C37.5501 29.77 42.0701 59.63 47.3801 64.93C51.6701 69.22 82.5501 74.75 98.1801 59.13Z" fill="#F89939"/>
<path d="M34.0401 36.5599C24.9701 27.4999 11.7701 25.9899 4.56007 33.1899C-2.64993 40.3999 -1.13993 53.5899 7.93007 62.6499C17.0001 71.7199 34.3301 69.0899 37.4101 66.0199C39.9001 63.5299 43.1201 45.6199 34.0401 36.5599Z" fill="#3499CD"/>
<path d="M123.82 56.68C123.24 56.68 122.95 56.33 122.95 55.62C122.95 55.09 123.3 53.93 123.99 52.16C125 49.57 125.51 47.71 125.51 46.58C125.51 45.9 125.31 45.33 124.91 44.88C124.51 44.43 124.01 44.2 123.41 44.2C122.53 44.2 121.52 44.61 120.38 45.44C119.24 46.27 117.71 47.76 115.78 49.92C116.06 48.52 116.66 46.6 117.56 44.16L113.25 44.99C112.27 47.11 111.56 49.02 111.12 50.72C110.9 51.55 110.74 52.41 110.63 53.28C109.28 54.59 108.4 55.38 108.02 55.67C107.63 55.96 107.22 56.1 106.8 56.1C106.41 56.1 106.1 55.95 105.87 55.66C105.64 55.37 105.53 54.97 105.53 54.48C105.53 53.95 105.63 53.34 105.83 52.65C106.03 51.96 106.47 50.66 107.16 48.75L108.8 44.23L107.19 44.3C105.73 47.08 104.02 48.58 102.06 48.79C102.59 47.41 102.86 46.35 102.86 45.61C102.86 44.67 102.4 44.2 101.48 44.2C100.39 44.2 99.54 44.71 98.93 45.74C98.31 46.77 98 47.74 98 48.65C98 49.56 98.5099 50.2 99.5199 50.65C98.8599 51.62 98.12 52.53 97.32 53.39C96.37 54.33 95.6299 55.05 95.0899 55.52C94.5399 56.01 94.03 56.25 93.57 56.25C92.85 56.25 92.4899 55.74 92.4899 54.73C92.4899 53.72 92.89 51.98 93.69 49.38L95.25 44.2H94.26L90.65 46.2C90.06 44.85 89.0299 44.17 87.5599 44.17C86.3899 44.17 85.0499 44.67 83.5299 45.66C82.0099 46.65 80.76 47.94 79.79 49.55C79.04 50.79 78.58 52.09 78.41 53.43C77.05 54.79 76.0299 55.67 75.3499 56.08C74.6399 56.5 73.9 56.71 73.12 56.71C71.13 56.71 69.9 55.56 69.43 53.26C74.62 51.74 77.2099 49.76 77.2099 47.32C77.2099 46.4 76.88 45.66 76.22 45.09C75.56 44.52 74.6799 44.24 73.5899 44.24C71.4799 44.24 69.56 45.25 67.83 47.27C66.26 49.1 65.41 51.13 65.26 53.36C63.83 54.77 62.7499 55.7 62.0499 56.15C61.3299 56.61 60.65 56.84 60.02 56.84C59.39 56.84 58.89 56.54 58.52 55.94C58.14 55.34 57.95 54.53 57.95 53.5C57.95 53.04 58 52.2 58.09 50.97C60.45 48.41 62.18 46.01 63.29 43.76C64.4 41.51 64.9499 39.18 64.9499 36.78C64.9499 35.93 64.84 35.26 64.62 34.76C64.4 34.26 64.1199 34.01 63.7799 34.01C63.7099 34.01 63.5999 34.03 63.4599 34.08L58.97 35.74C57.44 38.66 56.13 41.85 55.06 45.32C53.99 48.78 53.45 51.75 53.45 54.22C53.45 55.87 53.83 57.18 54.61 58.16C55.38 59.14 56.4 59.63 57.66 59.63C58.76 59.63 59.9099 59.28 61.1199 58.58C62.3299 57.88 63.7299 56.79 65.3399 55.32C66.9499 53.85 65.3399 55.3 65.3399 55.3C65.5299 56.41 65.9899 57.34 66.7099 58.1C67.6999 59.12 68.9899 59.64 70.5899 59.64C72.0299 59.64 73.3399 59.29 74.5299 58.59C75.6799 57.92 76.97 56.87 78.41 55.48C78.53 56.52 78.87 57.42 79.44 58.19C80.17 59.16 81.05 59.65 82.08 59.65C83.11 59.65 84.1699 59.25 85.1699 58.45C86.1699 57.65 87.25 56.4 88.43 54.72C88.32 58.01 89.1999 59.65 91.0599 59.65C91.7999 59.65 92.5799 59.38 93.3899 58.84C94.1999 58.3 95.55 57.13 97.44 55.34C99.08 53.72 100.28 52.2 101.05 50.78C102.09 50.6 103.04 50.29 103.91 49.84C102.13 52.63 101.24 54.86 101.24 56.52C101.24 57.42 101.49 58.17 101.98 58.77C102.47 59.37 103.08 59.68 103.8 59.68C105.37 59.68 107.6 58.27 110.48 55.48C110.48 55.7 110.46 55.91 110.46 56.13C110.46 56.91 110.53 58.09 110.65 59.68L114.56 58.76C114.56 57.7 114.58 56.86 114.61 56.23C114.67 55.39 114.79 54.47 114.96 53.47C115.07 52.88 115.34 52.32 115.77 51.79L116.76 50.64C117.12 50.22 117.47 49.84 117.78 49.51C118.15 49.12 118.48 48.79 118.77 48.52C119.1 48.23 119.39 47.99 119.64 47.83C119.91 47.67 120.13 47.58 120.29 47.58C120.58 47.58 120.73 47.77 120.73 48.15C120.73 48.53 120.45 49.41 119.9 50.8C118.86 53.39 118.34 55.32 118.34 56.58C118.34 57.51 118.58 58.25 119.07 58.81C119.55 59.36 120.19 59.64 120.98 59.64C122.92 59.64 125.26 58.2 127.98 55.33V53.3C126.05 55.57 124.66 56.71 123.8 56.71L123.82 56.68ZM58.56 48.39C59.36 44.48 60.1799 41.45 61.0099 39.28C61.8399 37.11 62.48 36.02 62.91 36.02C63.11 36.02 63.28 36.15 63.41 36.42C63.54 36.68 63.5999 37.04 63.5999 37.47C63.5999 38.96 63.14 40.73 62.2 42.8C61.27 44.86 60.05 46.73 58.56 48.39ZM70.3499 47.41C71.0599 46.22 71.8 45.63 72.58 45.63C73.4 45.63 73.82 46.2 73.82 47.33C73.82 49.62 72.31 51.18 69.29 52.03C69.29 50.13 69.6399 48.59 70.3499 47.41ZM87.83 53.26C86.79 55.27 85.67 56.27 84.5 56.27C84.02 56.27 83.6199 56.07 83.3099 55.68C82.9999 55.29 82.8399 54.77 82.8399 54.13C82.8399 52.45 83.3699 50.6 84.4199 48.6C85.4699 46.6 86.5899 45.6 87.7699 45.6C88.2599 45.6 88.6599 45.78 88.9499 46.16C89.2399 46.53 89.3899 47.05 89.3899 47.71C89.3899 49.41 88.87 51.26 87.83 53.27V53.26Z" fill="#010101"/>
<path d="M75.4601 35.88C75.6101 36.09 75.6801 36.36 75.6801 36.68C75.6801 37 75.5901 37.29 75.4101 37.56C75.2301 37.83 74.9701 38.05 74.6201 38.2C74.2801 38.35 73.8901 38.43 73.4601 38.43C72.7401 38.43 72.2001 38.28 71.8201 37.98C71.4401 37.68 71.2001 37.24 71.1001 36.65L72.0301 36.5C72.0801 36.87 72.2301 37.16 72.4601 37.35C72.7001 37.55 73.0301 37.65 73.4601 37.65C73.8901 37.65 74.2101 37.56 74.4201 37.39C74.6301 37.22 74.7301 37.01 74.7301 36.77C74.7301 36.56 74.6401 36.39 74.4501 36.27C74.3201 36.19 74.0001 36.08 73.4901 35.95C72.8001 35.78 72.3301 35.63 72.0601 35.5C71.7901 35.37 71.5901 35.2 71.4601 34.97C71.3301 34.74 71.2501 34.5 71.2501 34.23C71.2501 33.98 71.3101 33.76 71.4201 33.55C71.5301 33.34 71.6901 33.17 71.8801 33.03C72.0301 32.92 72.2201 32.83 72.4701 32.76C72.7201 32.69 72.9901 32.65 73.2801 32.65C73.7101 32.65 74.0901 32.71 74.4201 32.84C74.7501 32.96 74.9901 33.13 75.1501 33.35C75.3101 33.56 75.4101 33.85 75.4701 34.21L74.5501 34.33C74.5101 34.05 74.3901 33.82 74.1901 33.66C73.9901 33.5 73.7101 33.42 73.3401 33.42C72.9101 33.42 72.6001 33.49 72.4201 33.63C72.2401 33.77 72.1401 33.94 72.1401 34.13C72.1401 34.25 72.1801 34.36 72.2501 34.46C72.3301 34.56 72.4501 34.64 72.6101 34.71C72.7001 34.74 72.9801 34.82 73.4401 34.95C74.1001 35.13 74.5601 35.27 74.8301 35.38C75.0901 35.49 75.3001 35.66 75.4501 35.87L75.4601 35.88ZM79.9301 37.32C79.6801 37.55 79.3801 37.66 79.0101 37.66C78.5501 37.66 78.1801 37.49 77.9001 37.16C77.6201 36.83 77.4701 36.28 77.4701 35.54C77.4701 34.8 77.6201 34.27 77.9101 33.94C78.2001 33.61 78.5901 33.43 79.0601 33.43C79.3701 33.43 79.6401 33.52 79.8601 33.71C80.0801 33.9 80.2301 34.18 80.3201 34.55L81.2301 34.41C81.1201 33.85 80.8801 33.42 80.5001 33.12C80.1201 32.82 79.6301 32.67 79.0301 32.67C78.5501 32.67 78.1201 32.78 77.7101 33.01C77.3101 33.23 77.0001 33.57 76.8101 34.02C76.6101 34.47 76.5101 34.99 76.5101 35.59C76.5101 36.51 76.7401 37.22 77.2001 37.71C77.6601 38.2 78.2701 38.45 79.0201 38.45C79.6201 38.45 80.1301 38.27 80.5501 37.91C80.9601 37.55 81.2201 37.05 81.3201 36.42L80.4001 36.3C80.3301 36.77 80.1801 37.11 79.9301 37.34V37.32ZM82.1201 38.3H83.0601V32.78H82.1201V38.3ZM82.1201 31.75H83.0601V30.67H82.1201V31.75ZM88.8501 32.77H87.6401L85.4201 35.02V30.67H84.4801V38.29H85.4201V36.1L86.0801 35.47L87.9101 38.29H89.0701L86.7401 34.82L88.8501 32.77ZM89.8101 31.75H90.7501V30.67H89.8101V31.75ZM89.8101 38.3H90.7501V32.78H89.8101V38.3ZM94.2201 37.46C94.0501 37.48 93.9101 37.5 93.8101 37.5C93.6701 37.5 93.5601 37.48 93.4901 37.43C93.4201 37.38 93.3601 37.32 93.3301 37.25C93.3001 37.17 93.2801 37 93.2801 36.74V33.51H94.2201V32.78H93.2801V30.85L92.3501 31.41V32.78H91.6601V33.51H92.3501V36.69C92.3501 37.25 92.3901 37.62 92.4601 37.79C92.5401 37.97 92.6701 38.11 92.8501 38.21C93.0401 38.32 93.3001 38.37 93.6401 38.37C93.8501 38.37 94.0801 38.34 94.3501 38.29L94.2101 37.46H94.2201Z" fill="white"/>
</svg>
